<mxfile host="app.diagrams.net" modified="2022-08-31T09:41:28.613Z" agent="5.0 (Windows NT 10.0; Win64; x64) AppleWebKit/537.36 (KHTML, like Gecko) Chrome/104.0.0.0 Safari/537.36" etag="9XcU8dvVPupVQ0DRwbUu" version="20.2.4" type="github">
  <diagram id="C5RBs43oDa-KdzZeNtuy" name="Page-1">
    <mxGraphModel dx="1022" dy="428" grid="1" gridSize="10" guides="1" tooltips="1" connect="1" arrows="1" fold="1" page="1" pageScale="1" pageWidth="827" pageHeight="1169" math="0" shadow="0">
      <root>
        <mxCell id="WIyWlLk6GJQsqaUBKTNV-0" />
        <mxCell id="WIyWlLk6GJQsqaUBKTNV-1" parent="WIyWlLk6GJQsqaUBKTNV-0" />
        <mxCell id="NwdlKz1pl0HDGIarSTjT-12" style="edgeStyle=orthogonalEdgeStyle;rounded=0;orthogonalLoop=1;jettySize=auto;html=1;exitX=0.5;exitY=1;exitDx=0;exitDy=0;entryX=0.5;entryY=0;entryDx=0;entryDy=0;" edge="1" parent="WIyWlLk6GJQsqaUBKTNV-1" source="NwdlKz1pl0HDGIarSTjT-0" target="NwdlKz1pl0HDGIarSTjT-1">
          <mxGeometry relative="1" as="geometry" />
        </mxCell>
        <mxCell id="NwdlKz1pl0HDGIarSTjT-0" value="Mulai" style="ellipse;whiteSpace=wrap;html=1;" vertex="1" parent="WIyWlLk6GJQsqaUBKTNV-1">
          <mxGeometry x="340" y="40" width="120" height="50" as="geometry" />
        </mxCell>
        <mxCell id="NwdlKz1pl0HDGIarSTjT-13" style="edgeStyle=orthogonalEdgeStyle;rounded=0;orthogonalLoop=1;jettySize=auto;html=1;exitX=0.5;exitY=1;exitDx=0;exitDy=0;entryX=0.5;entryY=0;entryDx=0;entryDy=0;" edge="1" parent="WIyWlLk6GJQsqaUBKTNV-1" source="NwdlKz1pl0HDGIarSTjT-1" target="NwdlKz1pl0HDGIarSTjT-2">
          <mxGeometry relative="1" as="geometry" />
        </mxCell>
        <mxCell id="NwdlKz1pl0HDGIarSTjT-1" value="Studi Literatur" style="rounded=0;whiteSpace=wrap;html=1;" vertex="1" parent="WIyWlLk6GJQsqaUBKTNV-1">
          <mxGeometry x="260" y="120" width="280" height="50" as="geometry" />
        </mxCell>
        <mxCell id="NwdlKz1pl0HDGIarSTjT-14" style="edgeStyle=orthogonalEdgeStyle;rounded=0;orthogonalLoop=1;jettySize=auto;html=1;exitX=0.5;exitY=1;exitDx=0;exitDy=0;entryX=0.5;entryY=0;entryDx=0;entryDy=0;" edge="1" parent="WIyWlLk6GJQsqaUBKTNV-1" source="NwdlKz1pl0HDGIarSTjT-2" target="NwdlKz1pl0HDGIarSTjT-3">
          <mxGeometry relative="1" as="geometry" />
        </mxCell>
        <mxCell id="NwdlKz1pl0HDGIarSTjT-2" value="Studi Bimbingan" style="rounded=0;whiteSpace=wrap;html=1;" vertex="1" parent="WIyWlLk6GJQsqaUBKTNV-1">
          <mxGeometry x="260" y="200" width="280" height="50" as="geometry" />
        </mxCell>
        <mxCell id="NwdlKz1pl0HDGIarSTjT-15" style="edgeStyle=orthogonalEdgeStyle;rounded=0;orthogonalLoop=1;jettySize=auto;html=1;exitX=0.5;exitY=1;exitDx=0;exitDy=0;entryX=0.5;entryY=0;entryDx=0;entryDy=0;" edge="1" parent="WIyWlLk6GJQsqaUBKTNV-1" source="NwdlKz1pl0HDGIarSTjT-3" target="NwdlKz1pl0HDGIarSTjT-4">
          <mxGeometry relative="1" as="geometry" />
        </mxCell>
        <mxCell id="NwdlKz1pl0HDGIarSTjT-3" value="Identifikasi Masalah dan Solusi" style="rounded=0;whiteSpace=wrap;html=1;" vertex="1" parent="WIyWlLk6GJQsqaUBKTNV-1">
          <mxGeometry x="260" y="280" width="280" height="50" as="geometry" />
        </mxCell>
        <mxCell id="NwdlKz1pl0HDGIarSTjT-18" style="edgeStyle=orthogonalEdgeStyle;rounded=0;orthogonalLoop=1;jettySize=auto;html=1;exitX=0.5;exitY=1;exitDx=0;exitDy=0;entryX=0.5;entryY=0;entryDx=0;entryDy=0;" edge="1" parent="WIyWlLk6GJQsqaUBKTNV-1" source="NwdlKz1pl0HDGIarSTjT-4" target="NwdlKz1pl0HDGIarSTjT-7">
          <mxGeometry relative="1" as="geometry" />
        </mxCell>
        <mxCell id="NwdlKz1pl0HDGIarSTjT-19" style="edgeStyle=orthogonalEdgeStyle;rounded=0;orthogonalLoop=1;jettySize=auto;html=1;exitX=0.5;exitY=1;exitDx=0;exitDy=0;entryX=0.5;entryY=0;entryDx=0;entryDy=0;" edge="1" parent="WIyWlLk6GJQsqaUBKTNV-1" source="NwdlKz1pl0HDGIarSTjT-4" target="NwdlKz1pl0HDGIarSTjT-5">
          <mxGeometry relative="1" as="geometry" />
        </mxCell>
        <mxCell id="NwdlKz1pl0HDGIarSTjT-20" style="edgeStyle=orthogonalEdgeStyle;rounded=0;orthogonalLoop=1;jettySize=auto;html=1;exitX=0.5;exitY=1;exitDx=0;exitDy=0;entryX=0.5;entryY=0;entryDx=0;entryDy=0;" edge="1" parent="WIyWlLk6GJQsqaUBKTNV-1" source="NwdlKz1pl0HDGIarSTjT-4" target="NwdlKz1pl0HDGIarSTjT-6">
          <mxGeometry relative="1" as="geometry" />
        </mxCell>
        <mxCell id="NwdlKz1pl0HDGIarSTjT-4" value="Perancangan Fitur Aplikasi" style="rounded=0;whiteSpace=wrap;html=1;" vertex="1" parent="WIyWlLk6GJQsqaUBKTNV-1">
          <mxGeometry x="260" y="390" width="280" height="50" as="geometry" />
        </mxCell>
        <mxCell id="NwdlKz1pl0HDGIarSTjT-27" style="edgeStyle=orthogonalEdgeStyle;rounded=0;orthogonalLoop=1;jettySize=auto;html=1;exitX=0.5;exitY=1;exitDx=0;exitDy=0;entryX=0.5;entryY=0;entryDx=0;entryDy=0;" edge="1" parent="WIyWlLk6GJQsqaUBKTNV-1" source="NwdlKz1pl0HDGIarSTjT-5" target="NwdlKz1pl0HDGIarSTjT-25">
          <mxGeometry relative="1" as="geometry">
            <Array as="points">
              <mxPoint x="150" y="680" />
              <mxPoint x="400" y="680" />
            </Array>
          </mxGeometry>
        </mxCell>
        <mxCell id="NwdlKz1pl0HDGIarSTjT-5" value="UML" style="rounded=0;whiteSpace=wrap;html=1;" vertex="1" parent="WIyWlLk6GJQsqaUBKTNV-1">
          <mxGeometry x="90" y="480" width="120" height="40" as="geometry" />
        </mxCell>
        <mxCell id="NwdlKz1pl0HDGIarSTjT-22" style="edgeStyle=orthogonalEdgeStyle;rounded=0;orthogonalLoop=1;jettySize=auto;html=1;exitX=0.5;exitY=1;exitDx=0;exitDy=0;entryX=0.5;entryY=0;entryDx=0;entryDy=0;" edge="1" parent="WIyWlLk6GJQsqaUBKTNV-1" source="NwdlKz1pl0HDGIarSTjT-6" target="NwdlKz1pl0HDGIarSTjT-8">
          <mxGeometry relative="1" as="geometry" />
        </mxCell>
        <mxCell id="NwdlKz1pl0HDGIarSTjT-6" value="Interface (UI)" style="rounded=0;whiteSpace=wrap;html=1;" vertex="1" parent="WIyWlLk6GJQsqaUBKTNV-1">
          <mxGeometry x="560" y="480" width="120" height="40" as="geometry" />
        </mxCell>
        <mxCell id="NwdlKz1pl0HDGIarSTjT-28" style="edgeStyle=orthogonalEdgeStyle;rounded=0;orthogonalLoop=1;jettySize=auto;html=1;exitX=0.5;exitY=1;exitDx=0;exitDy=0;entryX=0.5;entryY=0;entryDx=0;entryDy=0;" edge="1" parent="WIyWlLk6GJQsqaUBKTNV-1" source="NwdlKz1pl0HDGIarSTjT-7" target="NwdlKz1pl0HDGIarSTjT-25">
          <mxGeometry relative="1" as="geometry" />
        </mxCell>
        <mxCell id="NwdlKz1pl0HDGIarSTjT-7" value="Flowchart" style="rounded=0;whiteSpace=wrap;html=1;" vertex="1" parent="WIyWlLk6GJQsqaUBKTNV-1">
          <mxGeometry x="340" y="480" width="120" height="40" as="geometry" />
        </mxCell>
        <mxCell id="NwdlKz1pl0HDGIarSTjT-24" style="edgeStyle=orthogonalEdgeStyle;rounded=0;orthogonalLoop=1;jettySize=auto;html=1;exitX=0.5;exitY=1;exitDx=0;exitDy=0;entryX=0.5;entryY=0;entryDx=0;entryDy=0;" edge="1" parent="WIyWlLk6GJQsqaUBKTNV-1" source="NwdlKz1pl0HDGIarSTjT-8" target="NwdlKz1pl0HDGIarSTjT-10">
          <mxGeometry relative="1" as="geometry" />
        </mxCell>
        <mxCell id="NwdlKz1pl0HDGIarSTjT-8" value="Desain Elemen Grafis&amp;nbsp;" style="rounded=0;whiteSpace=wrap;html=1;" vertex="1" parent="WIyWlLk6GJQsqaUBKTNV-1">
          <mxGeometry x="530" y="550" width="180" height="40" as="geometry" />
        </mxCell>
        <mxCell id="NwdlKz1pl0HDGIarSTjT-29" style="edgeStyle=orthogonalEdgeStyle;rounded=0;orthogonalLoop=1;jettySize=auto;html=1;exitX=0.5;exitY=1;exitDx=0;exitDy=0;entryX=0.5;entryY=0;entryDx=0;entryDy=0;" edge="1" parent="WIyWlLk6GJQsqaUBKTNV-1" source="NwdlKz1pl0HDGIarSTjT-10" target="NwdlKz1pl0HDGIarSTjT-25">
          <mxGeometry relative="1" as="geometry" />
        </mxCell>
        <mxCell id="NwdlKz1pl0HDGIarSTjT-10" value="Desain Prototype Website" style="rounded=0;whiteSpace=wrap;html=1;" vertex="1" parent="WIyWlLk6GJQsqaUBKTNV-1">
          <mxGeometry x="530" y="620" width="180" height="40" as="geometry" />
        </mxCell>
        <mxCell id="NwdlKz1pl0HDGIarSTjT-30" style="edgeStyle=orthogonalEdgeStyle;rounded=0;orthogonalLoop=1;jettySize=auto;html=1;exitX=0.5;exitY=1;exitDx=0;exitDy=0;entryX=0.5;entryY=0;entryDx=0;entryDy=0;" edge="1" parent="WIyWlLk6GJQsqaUBKTNV-1" source="NwdlKz1pl0HDGIarSTjT-25" target="NwdlKz1pl0HDGIarSTjT-26">
          <mxGeometry relative="1" as="geometry" />
        </mxCell>
        <mxCell id="NwdlKz1pl0HDGIarSTjT-25" value="Few-Shot Training Model Bahasa GPT-3" style="rounded=0;whiteSpace=wrap;html=1;" vertex="1" parent="WIyWlLk6GJQsqaUBKTNV-1">
          <mxGeometry x="260" y="700" width="280" height="50" as="geometry" />
        </mxCell>
        <mxCell id="NwdlKz1pl0HDGIarSTjT-31" style="edgeStyle=orthogonalEdgeStyle;rounded=0;orthogonalLoop=1;jettySize=auto;html=1;exitX=1;exitY=0.5;exitDx=0;exitDy=0;entryX=1;entryY=0.5;entryDx=0;entryDy=0;" edge="1" parent="WIyWlLk6GJQsqaUBKTNV-1" source="NwdlKz1pl0HDGIarSTjT-26" target="NwdlKz1pl0HDGIarSTjT-25">
          <mxGeometry relative="1" as="geometry">
            <Array as="points">
              <mxPoint x="610" y="855" />
              <mxPoint x="610" y="725" />
            </Array>
          </mxGeometry>
        </mxCell>
        <mxCell id="NwdlKz1pl0HDGIarSTjT-36" style="edgeStyle=orthogonalEdgeStyle;rounded=0;orthogonalLoop=1;jettySize=auto;html=1;exitX=0.5;exitY=1;exitDx=0;exitDy=0;entryX=0.5;entryY=0;entryDx=0;entryDy=0;" edge="1" parent="WIyWlLk6GJQsqaUBKTNV-1" source="NwdlKz1pl0HDGIarSTjT-26" target="NwdlKz1pl0HDGIarSTjT-34">
          <mxGeometry relative="1" as="geometry" />
        </mxCell>
        <mxCell id="NwdlKz1pl0HDGIarSTjT-26" value="Hasil sudah sesuai konteks?" style="rhombus;whiteSpace=wrap;html=1;" vertex="1" parent="WIyWlLk6GJQsqaUBKTNV-1">
          <mxGeometry x="325" y="790" width="150" height="130" as="geometry" />
        </mxCell>
        <mxCell id="NwdlKz1pl0HDGIarSTjT-32" value="Tidak" style="text;html=1;align=center;verticalAlign=middle;resizable=0;points=[];autosize=1;strokeColor=none;fillColor=none;" vertex="1" parent="WIyWlLk6GJQsqaUBKTNV-1">
          <mxGeometry x="605" y="785" width="50" height="30" as="geometry" />
        </mxCell>
        <mxCell id="NwdlKz1pl0HDGIarSTjT-40" style="edgeStyle=orthogonalEdgeStyle;rounded=0;orthogonalLoop=1;jettySize=auto;html=1;exitX=0.5;exitY=1;exitDx=0;exitDy=0;entryX=0.5;entryY=0;entryDx=0;entryDy=0;" edge="1" parent="WIyWlLk6GJQsqaUBKTNV-1" source="NwdlKz1pl0HDGIarSTjT-34" target="NwdlKz1pl0HDGIarSTjT-38">
          <mxGeometry relative="1" as="geometry" />
        </mxCell>
        <mxCell id="NwdlKz1pl0HDGIarSTjT-34" value="Import API Key dari akun developer OpenAI" style="rounded=0;whiteSpace=wrap;html=1;" vertex="1" parent="WIyWlLk6GJQsqaUBKTNV-1">
          <mxGeometry x="250" y="950" width="300" height="40" as="geometry" />
        </mxCell>
        <mxCell id="NwdlKz1pl0HDGIarSTjT-37" value="Ya" style="text;html=1;align=center;verticalAlign=middle;resizable=0;points=[];autosize=1;strokeColor=none;fillColor=none;" vertex="1" parent="WIyWlLk6GJQsqaUBKTNV-1">
          <mxGeometry x="405" y="920" width="40" height="30" as="geometry" />
        </mxCell>
        <mxCell id="NwdlKz1pl0HDGIarSTjT-41" style="edgeStyle=orthogonalEdgeStyle;rounded=0;orthogonalLoop=1;jettySize=auto;html=1;exitX=0.5;exitY=1;exitDx=0;exitDy=0;entryX=0.5;entryY=0;entryDx=0;entryDy=0;" edge="1" parent="WIyWlLk6GJQsqaUBKTNV-1" source="NwdlKz1pl0HDGIarSTjT-38" target="NwdlKz1pl0HDGIarSTjT-39">
          <mxGeometry relative="1" as="geometry" />
        </mxCell>
        <mxCell id="NwdlKz1pl0HDGIarSTjT-38" value="Pemrograman Sistem ke API (Backend)" style="rounded=0;whiteSpace=wrap;html=1;" vertex="1" parent="WIyWlLk6GJQsqaUBKTNV-1">
          <mxGeometry x="250" y="1020" width="300" height="40" as="geometry" />
        </mxCell>
        <mxCell id="NwdlKz1pl0HDGIarSTjT-39" value="Pemrograman Tampilan Web (Frontend)" style="rounded=0;whiteSpace=wrap;html=1;" vertex="1" parent="WIyWlLk6GJQsqaUBKTNV-1">
          <mxGeometry x="250" y="1090" width="300" height="40" as="geometry" />
        </mxCell>
      </root>
    </mxGraphModel>
  </diagram>
</mxfile>
